<svg width="892" height="1080" viewBox="0 0 892 1080" fill="none" xmlns="http://www.w3.org/2000/svg">
<line y1="-51" x2="2059.02" y2="-51" transform="matrix(-4.37114e-08 -1 0.999986 0.00532905 319 1738)" stroke="#E60000" stroke-width="102" class="hover:animate-pulse"/>
<line y1="-51" x2="2059.02" y2="-51" transform="matrix(-4.37114e-08 -1 0.999986 0.00532905 207 1716)" stroke="#B10000" stroke-width="102"/>
<line y1="-51" x2="2059.02" y2="-51" transform="matrix(-4.37114e-08 -1 0.999986 0.00532905 431 1723)" stroke="#FF7700" stroke-width="102"/>
<line y1="-51" x2="2059.02" y2="-51" transform="matrix(-4.37114e-08 -1 0.999986 0.00532905 542 1709.02)" stroke="#FFCC00" stroke-width="102"/>
<path d="M589.247 1722.12C1221.71 919.2 445.122 85.8242 589.247 -336.903" stroke="#FFDF5D" stroke-width="102"/>
<line y1="-51" x2="2059.02" y2="-51" transform="matrix(-4.37114e-08 -1 0.999986 0.00532905 95.3248 1745)" stroke="#880036" stroke-width="102"/>
</svg>
