<svg width="1769" height="1427" viewBox="0 0 1769 1427" fill="none" xmlns="http://www.w3.org/2000/svg">
<path d="M1051 188C1051 250.408 1000.41 301 938 301H414C351.592 301 301 351.592 301 414V776.557C301 873.688 415.442 925.558 488.485 861.533L1467.31 3.56259C1467.75 3.17649 1468 2.61918 1468 2.03343C1468 0.9104 1468.91 0 1470.03 0H1656C1718.41 0 1769 50.5918 1769 113V1314C1769 1376.41 1718.41 1427 1656 1427H831C768.592 1427 718 1376.41 718 1314V1239C718 1176.59 768.592 1126 831 1126H1355C1417.41 1126 1468 1075.41 1468 1013V652.532C1468 555.401 1353.56 503.531 1280.52 567.555L301.203 1425.95C301.074 1426.07 301 1426.23 301 1426.4C301 1426.73 300.733 1427 300.403 1427H113C50.5918 1427 0 1376.41 0 1314V113C0 50.5918 50.5918 0 113 0H938C1000.41 0 1051 50.5918 1051 113V188Z" fill="black"/>
</svg>
