<svg width="613" height="495" viewBox="0 0 613 495" fill="none" xmlns="http://www.w3.org/2000/svg">
<path d="M364.196 76.3037C364.196 91.7677 351.66 104.304 336.196 104.304H132.304C116.84 104.304 104.304 116.84 104.304 132.304L104.303 293.712C104.303 317.78 132.66 330.633 150.759 314.769L508.456 1.2362C508.609 1.10223 508.696 0.908838 508.696 0.705587C508.696 0.315902 509.012 0 509.402 0H585C600.464 0 613 12.536 613 28V420.107C613 420.133 613.001 420.159 613.001 420.186V466.489C613.001 481.953 600.465 494.489 585.001 494.489H583.077C583.051 494.489 583.026 494.49 583 494.49H508.697C508.697 494.49 508.696 494.49 508.696 494.49C508.696 494.489 508.696 494.489 508.696 494.489H276.804C261.34 494.489 248.804 481.953 248.804 466.489V418.186C248.804 402.722 261.34 390.186 276.804 390.186H480.696C496.16 390.186 508.696 377.65 508.696 362.186V201.502C508.696 177.434 480.339 164.582 462.24 180.446L104.373 494.128C104.328 494.167 104.303 494.224 104.303 494.283C104.303 494.397 104.211 494.489 104.097 494.489H28C12.536 494.489 0 481.953 0 466.489V28C0 12.536 12.536 0 28 0H336.196C351.66 0 364.196 12.536 364.196 28V76.3037Z" fill="#70D34C"/>
</svg>
