<svg width="1769" height="1427" viewBox="0 0 1769 1427" fill="none" xmlns="http://www.w3.org/2000/svg">
<path d="M1051 257C1051 281.301 1031.3 301 1007 301H345C320.699 301 301 320.699 301 345V928.792C301 966.613 345.561 986.811 374.003 961.881L1467.31 3.56259C1467.75 3.17649 1468 2.61918 1468 2.03343C1468 0.910399 1468.91 0 1470.03 0H1725C1749.3 0 1769 19.6995 1769 44V1383C1769 1407.3 1749.3 1427 1725 1427H762C737.699 1427 718 1407.3 718 1383V1170C718 1145.7 737.699 1126 762 1126H1424C1448.3 1126 1468 1106.3 1468 1082V500.296C1468 462.475 1423.44 442.278 1395 467.208L301.203 1425.95C301.074 1426.07 301 1426.23 301 1426.4C301 1426.73 300.733 1427 300.403 1427H44C19.6995 1427 0 1407.3 0 1383V44C0 19.6994 19.6995 0 44 0H1007C1031.3 0 1051 19.6995 1051 44V257Z" fill="black"/>
</svg>
