<svg width="560" height="300" viewBox="0 0 560 300" fill="none" xmlns="http://www.w3.org/2000/svg">
<g clip-path="url(#clip0_198_163)">
<path d="M53.7937 125.413C53.7169 125.412 53.6411 125.431 53.574 125.469C53.5041 125.51 53.4458 125.567 53.4048 125.637C53.3638 125.707 53.3413 125.786 53.3396 125.867V137.698C53.3383 137.756 53.3226 137.813 53.2938 137.864C53.265 137.915 53.2242 137.958 53.1748 137.989C53.1249 138.015 53.0691 138.029 53.0125 138.029C52.9558 138.029 52.9 138.015 52.8501 137.989L50.9339 136.88C50.7932 136.8 50.6339 136.757 50.4717 136.757C50.3095 136.757 50.1502 136.8 50.0095 136.88L42.3407 141.34C42.1988 141.42 42.0804 141.536 41.9977 141.676C41.9149 141.816 41.8707 141.976 41.8696 142.139V151.039C41.8696 151.367 42.0514 151.677 42.3407 151.841L50.0095 156.3C50.15 156.381 50.3091 156.423 50.4711 156.423C50.633 156.423 50.7921 156.381 50.9326 156.3L58.6014 151.841C58.8907 151.677 59.0726 151.367 59.0726 151.039V128.852C59.0726 128.506 58.8907 128.195 58.6014 128.032L54.0264 125.467C53.9541 125.431 53.8743 125.412 53.7932 125.411L53.7937 125.413ZM8.55 136.519C8.40625 136.519 8.26243 136.573 8.13618 136.645L0.467432 141.087C0.323238 141.169 0.20356 141.288 0.120736 141.432C0.037912 141.575 -0.0050617 141.739 -0.00375526 141.905L0.0145572 153.842C0.0145572 154.007 0.103932 154.171 0.248932 154.244C0.316074 154.288 0.39483 154.312 0.47537 154.312C0.555909 154.312 0.634665 154.288 0.701807 154.244L5.26118 151.623C5.4029 151.543 5.52088 151.426 5.60319 151.286C5.6855 151.145 5.72922 150.985 5.72993 150.823V145.236C5.72993 144.908 5.91112 144.598 6.20112 144.434L8.13612 143.306C8.27749 143.219 8.44056 143.175 8.60612 143.179C8.76862 143.179 8.93212 143.214 9.05899 143.306L10.994 144.434C11.2834 144.598 11.4652 144.908 11.4652 145.236V150.823C11.4652 151.149 11.6452 151.461 11.9339 151.623L16.4564 154.244C16.5268 154.288 16.6082 154.312 16.6914 154.312C16.7746 154.312 16.8561 154.288 16.9264 154.244C16.9984 154.205 17.0584 154.146 17.0999 154.076C17.1414 154.005 17.1629 153.924 17.1621 153.842V141.905C17.1621 141.577 16.9809 141.267 16.6909 141.103L9.04087 136.645C8.91221 136.576 8.77113 136.533 8.62581 136.519H8.55ZM71.4875 136.648V136.65L71.4863 136.651C71.3281 136.651 71.1711 136.692 71.0261 136.774L63.3573 141.231C63.068 141.396 62.8886 141.705 62.8886 142.033V150.933C62.8886 151.26 63.068 151.57 63.3573 151.733L70.9698 156.101C71.107 156.181 71.2631 156.224 71.422 156.224C71.581 156.224 71.7371 156.181 71.8742 156.101L76.4873 153.518C76.5591 153.478 76.6188 153.42 76.6601 153.349C76.7013 153.279 76.7226 153.198 76.7217 153.116C76.7224 153.035 76.701 152.954 76.6597 152.884C76.6185 152.813 76.5589 152.755 76.4873 152.716L68.7811 148.256C68.7105 148.215 68.6519 148.156 68.6108 148.085C68.5697 148.014 68.5477 147.934 68.5467 147.852V145.068C68.5462 144.987 68.5677 144.907 68.609 144.837C68.6502 144.767 68.7097 144.709 68.7811 144.67L71.1905 143.287C71.2608 143.243 71.3423 143.219 71.4255 143.219C71.5086 143.219 71.5901 143.243 71.6605 143.287L74.063 144.67C74.1328 144.711 74.1911 144.769 74.2323 144.839C74.2735 144.908 74.2963 144.987 74.2986 145.068V147.252C74.2986 147.416 74.3886 147.58 74.533 147.652C74.6034 147.697 74.6851 147.721 74.7686 147.721C74.852 147.721 74.9337 147.697 75.0042 147.652L79.561 144.978C79.7009 144.897 79.8168 144.78 79.8968 144.64C79.9768 144.499 80.018 144.34 80.0163 144.178V142.013C80.0163 141.685 79.8329 141.375 79.561 141.211L71.9485 136.773C71.8078 136.692 71.6484 136.649 71.4859 136.648H71.4847L71.4875 136.648ZM29.4937 136.795C29.3867 136.813 29.2817 136.848 29.1849 136.905L21.7662 141.213L29.9849 156.375C30.0284 156.358 30.072 156.338 30.1131 156.314L37.7756 151.864C37.8851 151.8 37.9779 151.716 38.0515 151.617L29.4952 136.792L29.4937 136.795ZM30.2956 137.013L35.375 145.82L37.7844 141.363C37.7798 141.36 37.7756 141.357 37.7709 141.354L30.2959 137.016L30.2956 137.013ZM21.2831 141.556C21.1429 141.722 21.0609 141.934 21.0609 142.158V151.058C21.0609 151.168 21.082 151.273 21.1183 151.374L23.9464 146.469L21.2827 141.553L21.2831 141.556ZM38.1831 141.857L35.7187 146.412L38.2344 150.772V142.16C38.2344 142.056 38.2157 141.955 38.1831 141.86L38.1831 141.857ZM50.4894 143.297C50.53 143.297 50.5703 143.306 50.6078 143.325L53.2284 144.854C53.3009 144.89 53.3383 144.98 53.3383 145.053V148.111C53.3383 148.203 53.3003 148.276 53.2284 148.313L50.6066 149.841C50.5698 149.859 50.5296 149.868 50.4887 149.868C50.4479 149.868 50.4076 149.859 50.3709 149.841L47.7491 148.314C47.6766 148.278 47.6392 148.186 47.6392 148.113V145.054C47.6392 144.963 47.6772 144.891 47.7491 144.854L50.3709 143.325C50.4077 143.306 50.4482 143.297 50.4894 143.297ZM71.4581 144.534C71.4259 144.534 71.3945 144.544 71.3678 144.562L69.9016 145.418C69.8739 145.435 69.8512 145.459 69.8355 145.487C69.8199 145.516 69.812 145.548 69.8124 145.58V147.293C69.8124 147.365 69.8472 147.42 69.9016 147.456L71.3678 148.312C71.3946 148.33 71.426 148.339 71.4582 148.339C71.4903 148.339 71.5217 148.33 71.5485 148.312L73.0135 147.456C73.0412 147.439 73.064 147.415 73.0798 147.386C73.0956 147.358 73.1039 147.325 73.1038 147.293V145.582C73.104 145.549 73.0957 145.517 73.0799 145.488C73.0641 145.46 73.0412 145.436 73.0135 145.419L71.5485 144.562C71.5217 144.545 71.4903 144.535 71.4582 144.535L71.4581 144.534ZM24.2706 147.075L21.5119 151.859C21.5149 151.861 21.5173 151.864 21.5204 151.865L29.1767 156.316C29.2194 156.341 29.2645 156.361 29.3097 156.378L24.2685 147.078L24.2706 147.075ZM39.5269 154.775C39.26 154.775 38.9939 154.838 38.7675 154.966L31.5487 159.172C31.3171 159.308 31.1251 159.502 30.9919 159.735C30.8586 159.968 30.7888 160.232 30.7894 160.5V168.888C30.7894 169.434 31.0786 169.943 31.5487 170.217L33.4494 171.308C34.3712 171.763 34.6962 171.76 35.1119 171.76C36.4681 171.76 37.2469 170.924 37.2469 169.487V161.212C37.2462 161.155 37.2233 161.1 37.183 161.059C37.1428 161.018 37.0882 160.994 37.0308 160.992H36.1089C36.0509 160.993 35.9954 161.016 35.9543 161.057C35.9133 161.098 35.8899 161.154 35.8892 161.212V169.493C35.8892 170.13 35.2229 170.768 34.1561 170.222L32.1836 169.076C32.1111 169.039 32.0749 168.947 32.0749 168.874V160.481C32.0749 160.408 32.1111 160.316 32.1836 160.28L39.3961 156.096C39.4504 156.06 39.5408 156.06 39.6146 156.096L46.8271 160.28C46.8989 160.318 46.9369 160.391 46.9369 160.481V168.868C46.9369 168.959 46.8996 169.033 46.8271 169.069L39.6083 173.274C39.5539 173.31 39.4636 173.31 39.3898 173.274L37.5467 172.163C37.4917 172.127 37.4186 172.11 37.3648 172.145C36.8586 172.437 36.7696 172.474 36.2811 172.638C36.1723 172.674 35.9918 172.746 36.3531 172.946L38.7606 174.385C38.9956 174.512 39.2479 174.584 39.5199 174.584C39.7912 174.584 40.0611 174.512 40.2781 174.422L47.4968 170.217C47.7285 170.081 47.9206 169.887 48.0538 169.653C48.187 169.42 48.2568 169.155 48.2562 168.887V160.499C48.2562 159.953 47.9669 159.445 47.4968 159.172L40.2781 154.966C40.0457 154.839 39.7847 154.774 39.5199 154.776V154.774L39.5269 154.775ZM50.7956 158.606C50.4251 158.608 50.0703 158.756 49.8093 159.019C49.5483 159.282 49.4024 159.638 49.4037 160.009C49.4027 160.379 49.5488 160.734 49.8097 160.997C50.0707 161.26 50.4253 161.408 50.7956 161.41C51.5562 161.41 52.1894 160.772 52.1894 160.009C52.1874 159.639 52.0402 159.285 51.7794 159.023C51.5187 158.76 51.1653 158.611 50.7956 158.607V158.606ZM50.7773 158.842H50.7785C50.9328 158.84 51.0858 158.869 51.2288 158.926C51.3718 158.984 51.5019 159.07 51.6114 159.179C51.7209 159.287 51.8078 159.417 51.8668 159.559C51.9259 159.701 51.956 159.854 51.9554 160.009C51.9554 160.646 51.4299 161.19 50.7785 161.19C50.146 161.19 49.6198 160.664 49.6198 160.009C49.6198 159.354 50.1633 158.843 50.7773 158.842ZM50.2707 159.225V160.826H50.5796V160.192H50.853C50.9617 160.192 50.9966 160.228 51.0154 160.319C51.0154 160.338 51.0691 160.737 51.0691 160.81H51.3938C51.3563 160.737 51.3399 160.517 51.3218 160.39C51.3043 160.19 51.2866 160.045 51.0691 160.027C51.1778 159.99 51.3571 159.936 51.3571 159.645C51.3571 159.226 50.9946 159.226 50.814 159.226L50.2707 159.225ZM50.5442 159.48H50.7956C50.8869 159.48 51.0324 159.48 51.0324 159.699C51.0324 159.771 50.9956 159.917 50.7956 159.917H50.5442V159.48ZM41.5004 160.736C39.4379 160.736 38.2061 161.611 38.2061 163.085C38.2061 164.669 39.4361 165.103 41.4079 165.303C43.7767 165.541 43.9579 165.887 43.9579 166.36C43.9579 167.179 43.3067 167.523 41.7873 167.523C39.8698 167.523 39.4529 167.05 39.3079 166.086C39.3079 165.976 39.2201 165.905 39.1114 165.905H38.1714C38.1425 165.904 38.1138 165.91 38.0871 165.921C38.0604 165.932 38.0361 165.948 38.0157 165.969C37.9953 165.989 37.9791 166.013 37.9681 166.04C37.9571 166.067 37.9515 166.095 37.9516 166.124C37.9516 167.362 38.6047 168.816 41.771 168.816C44.0491 168.816 45.3672 167.906 45.3672 166.304C45.3672 164.739 44.3172 164.319 42.0935 164.028C39.8497 163.737 39.6154 163.573 39.6154 163.046C39.6154 162.609 39.8157 162.027 41.4779 162.027C42.9622 162.027 43.5235 162.355 43.741 163.356C43.7513 163.401 43.7761 163.441 43.8116 163.471C43.8471 163.501 43.8913 163.518 43.9376 163.52H44.8969C44.9513 163.52 45.0077 163.485 45.0446 163.448C45.0785 163.4 45.0972 163.343 45.0983 163.284C44.954 161.537 43.8152 160.736 41.4996 160.736L41.5004 160.736Z" fill="#70D34C"/>
</g>
<path fill-rule="evenodd" clip-rule="evenodd" d="M557.036 157.99C556.755 156.166 555.223 154.972 553.441 154.891C552.796 154.862 552.141 154.929 551.498 155.011C550.721 155.11 549.954 155.285 549.179 155.401C548.643 155.481 548.1 155.518 547.565 155.573L547.552 155.503C548.551 153.617 549.591 151.751 550.536 149.838C551.261 148.371 551.881 146.85 552.521 145.342C553.581 142.843 554.428 140.267 555.129 137.649C555.801 135.142 556.376 132.608 556.557 130.007C556.629 128.968 556.679 127.925 556.674 126.885C556.669 126.056 556.579 125.225 556.496 124.398C556.402 123.451 556.116 122.552 555.72 121.688C555.198 120.549 554.387 119.615 553.535 118.727C552.853 118.017 552.102 117.369 551.357 116.722C550.296 115.799 549.103 115.062 547.864 114.408C546.46 113.662 544.972 113.085 543.432 112.689C542.499 112.451 541.545 112.274 540.6 112.086C540.26 112.017 539.919 111.875 539.579 111.875H533.179C532.947 111.875 532.718 111.994 532.485 112.021C530.952 112.191 529.438 112.48 527.967 112.936C527.417 113.106 526.915 112.999 526.392 112.951C525.992 112.914 525.598 112.806 525.198 112.786C523.671 112.71 522.143 112.598 520.618 112.614C519.156 112.629 517.709 112.87 516.294 113.272C515.109 113.608 513.951 114.019 512.889 114.641C512.435 114.908 512.075 114.857 511.605 114.722C510.026 114.266 508.435 113.838 506.831 113.479C505.831 113.255 504.802 113.144 503.781 113.037C502.801 112.935 501.818 112.874 500.833 112.853C499.871 112.833 498.903 112.833 497.946 112.918C496.422 113.051 494.92 113.368 493.472 113.864C491.87 114.411 490.372 115.228 489.044 116.279C487.689 117.351 486.603 118.66 485.729 120.154C484.809 121.731 484.178 123.419 483.785 125.193C483.573 126.153 483.438 127.141 483.293 128.116C483.247 128.42 483.75 128.724 483.125 129.026V133.272C483.75 133.555 483.255 133.837 483.291 134.12C483.378 134.801 483.455 135.487 483.57 136.163C483.752 137.232 483.967 138.298 484.187 139.361C484.493 140.846 484.815 142.327 485.154 143.805C485.401 144.88 485.683 145.949 485.978 147.012C486.429 148.636 486.872 150.263 487.382 151.868C487.855 153.36 488.397 154.831 488.934 156.301C489.679 158.336 490.57 160.304 491.639 162.191C492.563 163.825 493.619 165.355 495.036 166.614C495.97 167.443 497.009 168.081 498.219 168.399C499.17 168.649 500.136 168.679 501.109 168.48C502.218 168.254 503.254 167.758 504.124 167.036C504.226 166.952 504.338 166.888 504.459 167.042C504.918 167.624 505.533 168.012 506.176 168.348C507.912 169.253 509.803 169.524 511.724 169.634C512.189 169.661 512.659 169.594 513.128 169.581C514.041 169.556 514.929 169.378 515.802 169.126C516.259 168.993 516.706 168.825 517.172 168.668C517.196 169.164 517.228 169.641 517.242 170.119L517.307 172.723C517.319 173.119 517.334 173.516 517.371 173.911C517.466 174.928 517.558 175.945 517.679 176.959C517.764 177.658 517.851 178.362 518.016 179.044C518.345 180.42 518.797 181.765 519.364 183.061C519.908 184.32 520.744 185.431 521.802 186.302C523.189 187.449 524.816 187.939 526.572 188.029C527.298 188.067 528.045 188.032 528.76 187.902C529.896 187.7 531.02 187.434 532.127 187.105C534.371 186.427 536.311 185.257 537.761 183.367C538.586 182.289 539.263 181.124 539.698 179.837C540.057 178.774 540.395 177.7 540.664 176.612C540.876 175.754 540.981 174.87 541.111 173.994C541.196 173.415 541.248 172.83 541.301 172.246C541.389 171.298 541.478 170.351 541.541 169.401C541.585 168.739 541.583 168.075 541.609 167.412C541.617 167.211 541.65 167.01 541.669 166.809C541.686 166.622 541.78 166.558 541.97 166.561C542.639 166.571 543.31 166.589 543.978 166.559C544.726 166.525 545.481 166.493 546.217 166.369C547.266 166.194 548.307 165.972 549.336 165.702C550.55 165.385 551.664 164.816 552.736 164.168C553.984 163.414 555.123 162.529 556.046 161.389C556.849 160.394 557.23 159.245 557.036 157.99ZM554.904 158.604C554.863 159.176 554.601 159.666 554.221 160.084C552.427 162.061 550.178 163.261 547.605 163.851C546.627 164.075 545.619 164.191 544.618 164.284C543.763 164.359 542.904 164.379 542.047 164.344C541.418 164.321 540.794 164.177 540.152 164.084C540.087 164.672 540.026 165.284 539.952 165.894L539.653 168.235C539.562 168.977 539.491 169.721 539.398 170.462C539.307 171.182 539.193 171.899 539.097 172.618C539.008 173.288 538.943 173.961 538.843 174.63C538.69 175.655 538.544 176.683 538.344 177.699C538.104 178.915 537.736 180.092 537.135 181.189C536.403 182.527 535.364 183.546 534.042 184.301C532.679 185.08 531.19 185.485 529.68 185.824C528.611 186.064 527.51 186.103 526.427 186.006C524.55 185.836 522.947 185.033 521.736 183.577C520.58 182.188 519.798 180.595 519.518 178.793C519.387 177.934 519.284 177.072 519.211 176.207C519.128 175.246 519.065 174.284 519.024 173.32C518.968 172.097 518.927 170.874 518.901 169.651C518.868 168.147 518.857 166.643 518.836 165.139L518.832 165.082C518.067 165.541 517.315 166.043 516.518 166.457C515.586 166.939 514.565 167.227 513.519 167.302C512.695 167.365 511.861 167.422 511.041 167.356C509.696 167.248 508.353 167.037 507.149 166.376C506.661 166.107 506.152 165.78 505.816 165.351C505.009 164.322 505.396 163.022 506.611 162.396C507.451 161.963 508.368 161.783 509.279 161.572C510.071 161.392 510.856 161.177 511.629 160.929C512.393 160.679 512.875 160.059 513.351 159.452L514.104 158.482C513.79 158.449 513.494 158.416 513.198 158.388C512.298 158.303 511.44 158.056 510.619 157.692C509.917 157.381 509.906 157.347 509.391 157.906C508.531 158.84 507.695 159.796 506.853 160.745C506.233 161.443 505.616 162.146 504.999 162.846C504.388 163.538 503.816 164.27 503.157 164.914C502.18 165.871 501.002 166.447 499.596 166.382C498.694 166.341 497.869 166.024 497.126 165.507C495.594 164.44 494.561 162.947 493.621 161.379C492.417 159.369 491.493 157.229 490.701 155.029C490.154 153.509 489.604 151.988 489.126 150.446C488.606 148.771 488.151 147.074 487.703 145.377C487.368 144.096 487.059 142.808 486.776 141.514C486.447 140.044 486.142 138.569 485.861 137.089C485.675 136.09 485.567 135.076 485.416 134.07C485.213 132.714 485.176 131.345 485.249 129.983C485.315 128.756 485.491 127.532 485.666 126.314C485.909 124.627 486.464 123.036 487.264 121.534C487.753 120.613 488.361 119.776 489.063 118.999C490.216 117.722 491.612 116.8 493.164 116.108C494.249 115.624 495.396 115.333 496.564 115.105C498.298 114.768 500.047 114.781 501.797 114.817C502.562 114.832 503.324 114.972 504.088 115.048C505.734 115.211 507.347 115.558 508.939 115.985C510.1 116.296 511.237 116.699 512.388 117.049C512.504 117.084 512.673 117.081 512.768 117.019C514.328 116.001 516.033 115.329 517.846 114.945C518.534 114.799 519.244 114.736 519.948 114.691C520.803 114.636 521.666 114.586 522.519 114.636C523.546 114.694 524.567 114.846 525.587 114.986C526.082 115.053 526.565 115.225 527.061 115.272C527.299 115.294 527.551 115.121 527.802 115.063C529.083 114.767 530.357 114.438 531.649 114.204C532.611 114.03 533.594 113.948 534.572 113.892C535.663 113.829 536.761 113.784 537.851 113.836C539.231 113.905 540.603 114.098 541.948 114.413C543.621 114.803 545.226 115.368 546.752 116.153C547.892 116.739 548.976 117.419 549.951 118.256C550.591 118.804 551.245 119.346 551.823 119.958C552.535 120.711 553.262 121.466 553.709 122.431C554.045 123.159 554.285 123.913 554.351 124.711C554.434 125.702 554.534 126.697 554.524 127.689C554.516 128.639 554.386 129.587 554.294 130.534C554.086 132.693 553.616 134.805 553.046 136.889C552.569 138.61 552.03 140.313 551.428 141.995C550.879 143.546 550.245 145.068 549.604 146.584C549.133 147.707 548.62 148.813 548.068 149.899C547.02 151.952 545.93 153.985 544.669 155.919C544.452 156.254 544.246 156.596 544.033 156.938C544.583 157.309 545.206 157.439 545.834 157.507C546.431 157.572 547.039 157.611 547.636 157.566C548.59 157.496 549.541 157.359 550.49 157.226C551.43 157.095 552.351 156.828 553.316 156.898C554.28 156.968 554.969 157.701 554.904 158.604ZM541.146 156.508C540.736 155.979 540.319 155.457 539.918 154.922C539.289 154.082 538.838 153.144 538.384 152.201C537.954 151.308 537.426 150.463 536.973 149.579C536.182 148.039 535.378 146.503 534.649 144.932C533.734 142.959 533.012 140.916 532.784 138.731C532.688 137.806 532.664 136.882 532.851 135.966C533.15 134.502 533.914 133.358 535.199 132.573C536.391 131.845 537.719 131.61 539.08 131.536C539.924 131.491 540.772 131.528 541.649 131.528L541.619 131.38C541.074 130.241 540.565 129.082 539.969 127.969C539.127 126.399 538.051 124.984 536.852 123.671C535.964 122.699 535.002 121.797 533.949 121.001C532.913 120.216 531.821 119.516 530.656 118.942C529.266 118.259 527.819 117.731 526.301 117.394C524.842 117.071 523.374 116.872 521.878 116.856C520.602 116.843 519.334 116.9 518.091 117.188C516.214 117.623 514.498 118.395 513.005 119.646C512.179 120.339 511.441 121.13 510.807 122.003C510.059 123.029 509.456 124.138 508.941 125.301C508.233 126.896 507.748 128.556 507.416 130.262C507.249 131.112 507.119 131.971 506.987 132.828C506.941 133.128 506.937 133.435 506.91 133.779C507.141 133.659 507.307 133.566 507.477 133.484L508.03 133.236C509.901 132.38 511.839 131.829 513.922 131.892C514.807 131.919 515.654 132.094 516.441 132.482C517.95 133.226 518.833 134.492 519.217 136.094C519.482 137.199 519.663 138.327 519.839 139.451C519.978 140.329 520.119 141.217 520.135 142.102C520.158 143.397 520.093 144.694 520.022 145.988C519.961 147.088 519.734 148.172 519.347 149.204C518.647 151.074 517.867 152.914 517.138 154.774C516.897 155.389 516.713 156.025 516.485 156.701C516.836 156.701 517.121 156.698 517.406 156.702C517.517 156.704 517.631 156.707 517.739 156.733C518.576 156.93 519.303 157.309 519.898 157.954C520.693 158.811 521.109 159.812 521.131 160.97C521.142 161.612 521.075 162.256 521.078 162.897C521.091 165.889 521.114 168.88 521.139 171.871C521.143 172.359 521.168 172.849 521.203 173.337C521.276 174.359 521.349 175.381 521.449 176.401C521.519 177.124 521.617 177.846 521.731 178.564C521.893 179.581 522.356 180.487 522.882 181.353C523.334 182.097 523.923 182.729 524.697 183.166C526.014 183.907 527.432 183.969 528.862 183.696C529.827 183.511 530.776 183.215 531.713 182.909C532.635 182.614 533.477 182.11 534.174 181.438C534.831 180.801 535.297 180.025 535.611 179.168C536.221 177.506 536.411 175.756 536.664 174.02C536.758 173.37 536.84 172.718 536.926 172.067C537.024 171.326 537.124 170.585 537.219 169.844C537.289 169.292 537.353 168.739 537.42 168.188C537.516 167.395 537.618 166.603 537.71 165.81C537.781 165.197 537.841 164.581 537.903 163.967C537.984 163.182 538.071 162.397 538.14 161.611C538.194 161.014 538.172 160.406 538.278 159.821C538.472 158.747 538.979 157.833 539.931 157.243C540.329 156.996 540.779 156.833 541.221 156.624L541.146 156.508ZM505.147 152.101C504.673 150.984 504.387 149.797 504.301 148.587C504.221 147.446 504.357 146.31 504.474 145.174C504.588 144.074 504.682 142.969 504.715 141.864C504.77 140.048 504.648 138.234 504.561 136.419C504.508 135.339 504.634 134.245 504.73 133.162C504.817 132.186 504.925 131.208 505.109 130.247C505.419 128.634 505.829 127.044 506.413 125.503C506.968 124.041 507.604 122.618 508.504 121.337C509.12 120.458 509.819 119.637 510.491 118.778L510.292 118.707C508.106 118.013 505.884 117.471 503.599 117.234C502.518 117.122 501.434 117.056 500.35 116.992C500.017 116.972 499.68 117.017 499.346 117.049C498.52 117.128 497.684 117.159 496.871 117.314C495.487 117.577 494.159 118.019 492.93 118.74C491.826 119.387 490.899 120.223 490.123 121.226C489.266 122.334 488.689 123.586 488.274 124.922C487.785 126.497 487.552 128.119 487.489 129.755C487.434 131.189 487.406 132.632 487.654 134.061C487.838 135.124 487.961 136.199 488.164 137.259C488.441 138.703 488.738 140.144 489.081 141.574C489.572 143.62 490.062 145.669 490.643 147.691C491.199 149.627 491.827 151.547 492.507 153.443C493.063 154.991 493.706 156.509 494.384 158.008C494.825 158.984 495.359 159.924 495.919 160.838C496.515 161.809 497.193 162.73 498.112 163.434C499.272 164.324 500.17 164.462 501.349 163.486C501.854 163.068 502.281 162.552 502.72 162.06C503.418 161.279 504.092 160.476 504.787 159.693C505.672 158.694 506.568 157.706 507.458 156.712C507.646 156.502 507.826 156.286 508.009 156.073L507.707 155.807C506.608 154.761 505.737 153.499 505.147 152.101ZM538.703 122.37C539.43 123.215 540.12 124.092 540.771 124.998C542.021 126.753 543.019 128.649 543.755 130.677C544.081 131.571 544.341 132.473 544.224 133.451C544.144 134.136 544.151 134.831 544.09 135.52C544.039 136.093 543.949 136.663 543.874 137.234C543.763 138.096 543.602 138.954 543.554 139.819C543.508 140.642 543.556 141.474 543.608 142.299C543.66 143.138 543.773 143.972 543.85 144.809C543.937 145.757 544.054 146.706 544.081 147.657C544.103 148.438 544.033 149.223 543.965 150.002C543.884 150.941 543.646 151.85 543.291 152.722C543.041 153.336 542.743 153.931 542.461 154.545L542.574 154.665L542.746 154.798L542.919 154.488C544.381 152.187 545.681 149.787 546.808 147.305C547.529 145.703 548.214 144.084 548.863 142.451C549.878 139.911 550.681 137.3 551.302 134.637C551.581 133.441 551.794 132.228 551.983 131.014C552.131 130.065 552.254 129.105 552.281 128.147C552.311 127.132 552.254 126.108 552.161 125.095C552.091 124.33 551.902 123.56 551.423 122.938C550.652 121.937 549.82 120.979 548.797 120.222C547.936 119.584 547.077 118.929 546.153 118.393C544.688 117.543 543.101 116.976 541.444 116.591C539.826 116.214 538.188 116.051 536.538 116.017C535.566 115.996 534.589 116.101 533.618 116.192C532.739 116.274 531.865 116.415 530.979 116.531C531.929 117.066 532.866 117.541 533.75 118.101C535.608 119.278 537.273 120.694 538.703 122.37ZM514.562 155.321C515.162 153.401 515.981 151.567 516.773 149.722C517.416 148.226 517.767 146.649 517.884 145.031C517.942 144.232 517.926 143.424 517.886 142.624C517.847 141.733 517.765 140.845 517.641 139.962C517.475 138.836 517.286 137.71 517.019 136.605C516.731 135.409 516.003 134.577 514.755 134.27C513.995 134.083 513.24 134.091 512.472 134.212C510.596 134.507 508.878 135.199 507.278 136.211C506.956 136.415 506.779 136.579 506.835 137.041C506.953 138.019 506.978 139.013 506.974 140.001C506.968 141.398 506.908 142.796 506.855 144.193C506.837 144.647 506.772 145.1 506.723 145.553C506.648 146.247 506.504 146.94 506.508 147.632C506.512 148.346 506.586 149.077 506.759 149.768C507.309 151.96 508.474 153.754 510.383 155.019C511.557 155.798 512.857 156.19 514.283 156.264C514.38 155.937 514.466 155.627 514.562 155.321ZM512.321 136.517C512.069 135.989 512.213 135.553 512.796 135.35C512.938 135.3 513.084 135.247 513.231 135.233C513.434 135.213 513.64 135.227 513.845 135.227C514.584 135.231 515.294 135.334 515.904 135.804C516.296 136.106 516.401 136.506 516.147 136.916C515.788 137.499 515.24 137.791 514.567 137.847C513.506 137.936 512.762 137.441 512.321 136.517ZM541.721 136.324C541.806 135.622 541.874 134.917 541.961 134.215C541.996 133.932 541.847 133.856 541.61 133.849C540.865 133.829 540.12 133.802 539.375 133.789C538.535 133.774 537.717 133.909 536.94 134.228C536.077 134.583 535.421 135.152 535.153 136.091C534.956 136.783 534.894 137.506 534.969 138.222C535.074 139.328 535.325 140.416 535.715 141.457C536.236 142.845 536.782 144.233 537.434 145.562C538.317 147.363 539.316 149.106 540.254 150.879C540.505 151.352 540.716 151.846 540.977 152.399C541.504 151.3 541.791 150.103 541.821 148.885C541.847 147.879 541.766 146.868 541.708 145.861C541.671 145.245 541.584 144.632 541.524 144.018C541.44 143.161 541.313 142.304 541.294 141.446C541.274 140.573 541.336 139.694 541.411 138.823C541.482 137.986 541.62 137.157 541.721 136.324ZM540.04 135.648C539.763 136.412 539.171 136.844 538.404 136.971C537.688 137.088 537.061 136.824 536.595 136.253C536.263 135.847 536.39 135.366 536.887 135.091C537.459 134.775 538.087 134.695 538.827 134.647C539.029 134.684 539.332 134.714 539.62 134.797C540.038 134.915 540.193 135.229 540.04 135.648ZM517.901 159.186C517.492 158.851 516.951 158.832 516.561 159.199C516.078 159.655 515.653 160.177 515.228 160.691C514.738 161.286 514.278 161.904 513.644 162.364C512.723 163.034 511.649 163.311 510.57 163.574C509.712 163.783 508.85 163.976 507.989 164.177L507.979 164.288C508.234 164.406 508.482 164.554 508.748 164.638C510.061 165.054 511.396 165.261 512.782 165.143C513.784 165.058 514.738 164.84 515.641 164.411C516.885 163.822 517.842 162.888 518.656 161.802C518.792 161.621 518.854 161.353 518.87 161.119C518.926 160.293 518.506 159.679 517.901 159.186ZM550.246 159.514C549.189 159.627 548.132 159.748 547.073 159.808C546.561 159.838 546.043 159.74 545.526 159.698C544.661 159.628 543.816 159.436 543.084 158.973C542.66 158.706 542.308 158.676 541.858 158.827C541.216 159.044 540.691 159.373 540.536 160.069C540.431 160.539 540.392 161.027 540.35 161.509C540.342 161.594 540.448 161.75 540.529 161.771C541.025 161.902 541.523 162.056 542.03 162.102C542.653 162.158 543.286 162.14 543.913 162.109C544.59 162.075 545.271 162.031 545.938 161.919C547.51 161.655 549.031 161.225 550.381 160.334C550.868 160.012 551.351 159.683 551.834 159.357L551.794 159.289C551.278 159.366 550.764 159.459 550.246 159.514Z" fill="#70D34C"/>
<g clip-path="url(#clip1_198_163)">
<path d="M121.6 1V81H201.6V1H121.6ZM163.916 69.1683C162.735 71.5677 160.481 73.144 157.869 73.905C153.856 74.8266 150.017 74.3011 147.162 72.5872C145.251 71.4147 143.758 69.6099 142.745 67.5306L148.838 63.7994C148.891 63.8218 149.051 64.111 149.265 64.4848C150.042 65.7866 150.712 66.7082 152.029 67.3552C153.323 67.7968 156.164 68.079 157.261 65.8019C157.931 64.6435 157.718 60.92 157.718 56.8003C157.717 50.3267 157.747 43.88 157.747 37.48H165.241C165.241 44.52 165.279 51.1875 165.241 58.0573C165.257 62.2685 165.622 66.0227 163.916 69.1683ZM195.003 67.0512C192.399 75.9613 177.876 76.2506 172.072 70.3638C170.846 68.9782 170.077 68.2544 169.346 66.655C172.43 64.881 172.43 64.881 175.431 63.1446C177.061 65.6502 178.568 67.0282 181.28 67.592C184.959 68.0413 188.66 66.7773 187.83 62.8701C186.977 59.679 180.297 58.9027 175.751 55.4902C171.136 52.3907 170.054 44.8592 173.847 40.5558C175.111 38.9642 177.267 37.7763 179.528 37.2054L181.889 36.9002C186.42 36.8086 189.253 38.0054 191.332 40.3274C191.911 40.9136 192.383 41.5459 193.267 42.9162C190.852 44.4547 190.86 44.44 187.402 46.6787C186.664 45.0877 185.438 44.0893 184.143 43.6554C182.132 43.0461 179.596 43.7085 179.07 45.8333C178.888 46.488 178.925 47.0973 179.215 48.1789C180.03 50.0368 182.764 50.8445 185.217 51.9715C192.276 54.8349 194.66 57.905 195.247 61.5594C195.811 64.7056 195.11 66.7466 195.003 67.0512Z" fill="#70D34C"/>
</g>
<path d="M5.64502 1.25L11.8981 71.3081L39.9581 79.0588L68.0957 71.3169L74.355 1.25H5.64502ZM61.3488 17.8369L60.9569 22.3194L60.7844 24.375H27.8688L28.6544 33.125H60.0019L59.7919 35.2944L57.7713 57.8687L57.6225 59.2875L40 64.1306V64.1319L39.9788 64.1431L22.3681 59.5037L21.1725 46.25H29.8069L30.4188 53.0744L39.9731 55.625H40V55.2838L49.5969 52.8619L50.5994 41.875H20.7881L18.6738 18.0519L18.4681 15.625H61.555L61.3488 17.8369Z" fill="#70D34C"/>
<path d="M509.761 61.3248C497.766 64.6761 517.059 71.5992 532.332 65.0555C529.831 64.0829 528.036 62.9611 528.036 62.9611C521.226 64.2486 518.066 64.3498 511.884 63.6436C506.781 63.0592 509.761 61.3248 509.761 61.3248ZM530.504 54.7873C521.476 56.5242 516.262 56.4686 509.657 55.7873C504.551 55.2592 507.894 52.7842 507.894 52.7842C494.683 57.1692 515.248 62.1448 533.712 56.7442C531.749 56.053 530.504 54.7873 530.504 54.7873ZM537.578 16.9279C537.579 16.9279 510.871 23.5961 523.626 38.2948C527.391 42.6292 522.639 46.5261 522.639 46.5261C522.639 46.5261 532.194 41.5942 527.807 35.4154C523.707 29.6561 520.565 26.7948 537.578 16.9279ZM543.827 67.6429C543.827 67.6429 546.032 69.4617 541.397 70.8673C532.583 73.5373 504.706 74.3423 496.962 70.9742C494.181 69.7629 499.399 68.0836 501.041 67.7292C502.753 67.3586 503.731 67.4261 503.731 67.4261C500.636 65.2467 483.722 71.7073 495.142 73.5604C526.28 78.6079 551.902 71.2873 543.827 67.6429ZM533.125 48.6848C534.622 47.6636 536.689 46.7767 536.689 46.7767C536.689 46.7767 530.799 47.8298 524.931 48.323C517.747 48.9255 510.042 49.0442 506.174 48.5267C497.016 47.3023 511.194 43.9342 511.194 43.9342C511.194 43.9342 505.687 43.5617 498.917 46.8367C490.909 50.7086 518.724 52.4736 533.125 48.6848ZM536.631 58.1505C536.563 58.3317 536.338 58.5354 536.338 58.5354C555.884 53.3973 548.697 40.4236 539.352 43.7073C538.532 43.9973 538.102 44.6717 538.102 44.6717C538.102 44.6717 538.62 44.4629 539.776 44.2217C544.5 43.2373 551.269 50.5461 536.631 58.1505ZM520.113 43.7929C517.229 37.2748 507.451 31.5723 520.117 21.5686C535.912 9.1017 527.807 0.991699 527.807 0.991699C531.076 13.8717 516.276 17.7623 510.933 25.7836C507.295 31.2492 512.719 37.1223 520.113 43.7929ZM537.159 76.1355C525.167 78.393 510.376 78.1298 501.605 76.6817C501.605 76.6817 503.401 78.1692 512.634 78.7636C526.681 79.6617 548.259 78.2636 548.769 71.6161C548.769 71.6161 547.787 74.1361 537.159 76.1355Z" fill="#70D34C"/>
<path d="M400 18.9575C377.909 18.9575 360 28.3794 360 40C360 51.6206 377.909 61.0425 400 61.0425C422.091 61.0425 440 51.6206 440 40C440 28.3794 422.091 18.9575 400 18.9575ZM396.261 25.0888H400.819V25.0906L399.729 30.6956H403.789C406.343 30.6956 408.106 31.1419 409.075 32.0325C410.046 32.9244 410.336 34.3681 409.949 36.3638L408.041 46.1763H403.411L405.224 36.8456C405.431 35.7844 405.354 35.0613 404.996 34.675C404.638 34.2894 403.876 34.0969 402.71 34.0969H399.068L396.72 46.175H392.163L396.261 25.0888ZM376.706 30.6963H385.539C388.197 30.6963 390.136 31.3938 391.355 32.7888C392.574 34.1838 392.94 36.13 392.454 38.63C392.254 39.6606 391.914 40.6013 391.438 41.455C390.961 42.3075 390.338 43.0881 389.569 43.7956C388.652 44.6538 387.633 45.2663 386.512 45.6306C385.391 45.9963 383.962 46.1775 382.226 46.1775H378.292L377.202 51.7838H372.608L376.706 30.6963ZM412.56 30.6963H421.391C424.049 30.6963 425.987 31.3938 427.206 32.7888H427.207C428.426 34.1838 428.793 36.13 428.307 38.63C428.107 39.6606 427.769 40.6013 427.292 41.455C426.816 42.3075 426.193 43.0881 425.423 43.7956C424.506 44.6538 423.486 45.2663 422.364 45.6306C421.243 45.9963 419.816 46.1775 418.08 46.1775H414.146L413.056 51.7838H408.462L412.56 30.6963ZM380.653 34.0244L378.939 42.8494H381.732C383.584 42.8494 384.964 42.5019 385.871 41.8038C386.777 41.1063 387.388 39.9406 387.706 38.3088C388.009 36.7419 387.871 35.6344 387.29 34.9906C386.709 34.3456 385.546 34.0238 383.8 34.0238L380.653 34.0244ZM416.505 34.0244L414.79 42.8494H417.584C419.437 42.8494 420.815 42.5019 421.722 41.8038C422.628 41.1063 423.239 39.9406 423.557 38.3088C423.861 36.7419 423.723 35.6344 423.142 34.9906C422.561 34.3456 421.397 34.0238 419.652 34.0238L416.505 34.0244Z" fill="#70D34C"/>
<path d="M241.25 39.9438V79.0063H319.375V0.881348H241.25V39.9438ZM304.206 36.8188C306.077 37.2531 307.778 38.2317 309.094 39.6313C309.818 40.3854 310.448 41.2249 310.969 42.1313C310.969 42.2313 307.594 44.5126 305.537 45.7876C305.463 45.8376 305.163 45.5126 304.831 45.0188C304.456 44.3711 303.923 43.8291 303.281 43.4433C302.639 43.0575 301.911 42.8405 301.162 42.8126C298.794 42.6501 297.269 43.8938 297.281 45.9376C297.262 46.4464 297.378 46.9513 297.619 47.4001C298.138 48.4813 299.106 49.1251 302.144 50.4376C307.738 52.8438 310.131 54.4313 311.619 56.6876C313.281 59.1876 313.65 63.2251 312.525 66.2126C311.275 69.4626 308.213 71.6688 303.881 72.4001C301.903 72.6267 299.904 72.6057 297.931 72.3376C294.92 71.8491 292.142 70.4154 290 68.2439C289.281 67.4501 287.881 65.3813 287.969 65.2313C288.197 65.062 288.437 64.9095 288.688 64.7751L291.562 63.1251L293.806 61.8251L294.275 62.5188C295.066 63.6505 296.073 64.6147 297.238 65.3563C299.738 66.6688 303.15 66.4876 304.837 64.9688C305.404 64.4123 305.758 63.6747 305.836 62.8844C305.915 62.0942 305.714 61.3013 305.269 60.6438C304.644 59.7751 303.394 59.0438 299.9 57.5188C295.869 55.7813 294.131 54.7063 292.544 52.9938C291.553 51.8638 290.821 50.5305 290.4 49.0876C290.086 47.4391 290.04 45.7508 290.262 44.0876C291.094 40.1938 294.012 37.4751 298.275 36.6688C300.249 36.4246 302.249 36.4794 304.206 36.8313V36.8188ZM285.869 40.0938V43.2938H275.725V72.1876H268.531V43.2876H258.362V40.1626C258.335 39.0868 258.364 38.0103 258.45 36.9376C258.488 36.8876 264.7 36.8626 272.2 36.8751H285.831L285.869 40.0938Z" fill="#70D34C"/>
<path d="M160 157.125C163.935 157.125 167.125 153.935 167.125 150C167.125 146.065 163.935 142.875 160 142.875C156.065 142.875 152.875 146.065 152.875 150C152.875 153.935 156.065 157.125 160 157.125Z" fill="#70D34C"/>
<path d="M187.062 138.25C185.688 137.75 184.25 137.25 182.75 136.813C183.125 135.313 183.438 133.812 183.688 132.375C185 124.125 183.562 118.312 179.562 116.062C178.375 115.375 177.062 115.062 175.562 115.062C171.188 115.062 165.625 118.312 160 123.75C154.375 118.312 148.812 115.062 144.437 115.062C142.937 115.062 141.625 115.375 140.438 116.062C136.438 118.375 135 124.187 136.312 132.375C136.563 133.812 136.875 135.313 137.25 136.813C135.75 137.25 134.313 137.688 132.938 138.25C125.125 141.25 120.875 145.375 120.875 150C120.875 154.625 125.188 158.75 132.938 161.75C134.313 162.25 135.75 162.75 137.25 163.188C136.875 164.688 136.563 166.188 136.312 167.625C135 175.875 136.438 181.688 140.438 183.938C141.625 184.625 142.937 184.938 144.437 184.938C148.875 184.938 154.438 181.688 160 176.25C165.625 181.688 171.188 184.938 175.562 184.938C177.062 184.938 178.375 184.625 179.562 183.938C183.562 181.625 185 175.812 183.688 167.625C183.438 166.188 183.125 164.688 182.75 163.188C184.25 162.75 185.688 162.313 187.062 161.75C194.875 158.75 199.125 154.625 199.125 150C199.125 145.375 194.875 141.25 187.062 138.25ZM177.812 119.187C180.375 120.687 181.25 125.312 180.188 131.875C180 133.188 179.688 134.562 179.312 136C176.062 135.25 172.625 134.75 169 134.437C166.875 131.437 164.688 128.75 162.5 126.312C167.125 121.75 171.812 118.625 175.625 118.625C176.438 118.625 177.188 118.812 177.812 119.187ZM170.812 156.25C169.688 158.25 168.375 160.25 167 162.25C164.687 162.438 162.375 162.5 160 162.5C157.562 162.5 155.25 162.438 153 162.25C151.625 160.25 150.375 158.25 149.25 156.25C148.062 154.188 146.938 152.062 145.938 150C146.938 147.938 148.062 145.812 149.25 143.75C150.375 141.75 151.688 139.75 153.062 137.75C155.375 137.563 157.688 137.5 160.062 137.5C162.5 137.5 164.812 137.563 167.062 137.75C168.438 139.75 169.688 141.75 170.812 143.75C172 145.812 173.125 147.938 174.125 150C173.062 152.062 172 154.125 170.812 156.25ZM176 154.188C176.938 156.375 177.688 158.5 178.375 160.625C176.25 161.125 174 161.5 171.625 161.812C172.375 160.625 173.187 159.375 173.875 158.062C174.625 156.75 175.312 155.438 176 154.188ZM160 171.125C158.5 169.5 157.062 167.75 155.688 165.938C157.125 166 158.562 166.062 160 166.062C161.438 166.062 162.875 166 164.312 165.938C162.938 167.75 161.5 169.5 160 171.125ZM148.375 161.75C146 161.438 143.75 161.063 141.625 160.562C142.312 158.5 143.062 156.312 144 154.125C144.688 155.375 145.375 156.688 146.125 157.938C146.875 159.312 147.625 160.5 148.375 161.75ZM144 145.812C143.062 143.625 142.312 141.5 141.625 139.375C143.75 138.875 146 138.5 148.375 138.188C147.625 139.375 146.812 140.625 146.125 141.938C145.375 143.25 144.688 144.562 144 145.812ZM160 128.875C161.5 130.5 162.938 132.25 164.312 134.062C162.875 134 161.438 133.938 160 133.938C158.562 133.938 157.125 134 155.688 134.062C157.062 132.25 158.5 130.5 160 128.875ZM173.875 142L171.625 138.25C174 138.562 176.25 138.938 178.375 139.438C177.688 141.5 176.938 143.688 176 145.875C175.312 144.563 174.625 143.25 173.875 142ZM139.812 131.875C138.75 125.312 139.625 120.687 142.188 119.187C142.812 118.812 143.562 118.625 144.375 118.625C148.125 118.625 152.812 121.688 157.5 126.312C155.312 128.688 153.125 131.437 151 134.437C147.375 134.75 143.938 135.312 140.688 136C140.312 134.562 140.062 133.188 139.812 131.875ZM124.375 150C124.375 147.062 127.938 143.938 134.188 141.625C135.438 141.125 136.812 140.688 138.188 140.312C139.188 143.438 140.437 146.75 141.937 150.062C140.437 153.375 139.125 156.625 138.188 159.75C129.562 157.25 124.375 153.5 124.375 150ZM142.188 180.812C139.625 179.312 138.75 174.688 139.812 168.125C140 166.812 140.312 165.438 140.688 164C143.938 164.75 147.375 165.25 151 165.562C153.125 168.563 155.312 171.25 157.5 173.688C152.875 178.25 148.187 181.375 144.375 181.375C143.562 181.375 142.812 181.188 142.188 180.812ZM180.188 168.125C181.25 174.688 180.375 179.312 177.812 180.812C177.188 181.188 176.438 181.375 175.625 181.375C171.875 181.375 167.188 178.313 162.5 173.688C164.688 171.313 166.875 168.563 169 165.562C172.625 165.25 176.062 164.688 179.312 164C179.688 165.438 179.938 166.812 180.188 168.125ZM185.812 158.375C184.562 158.875 183.188 159.312 181.812 159.688C180.812 156.562 179.562 153.25 178.062 149.938C179.562 146.625 180.875 143.375 181.812 140.25C190.438 142.75 195.625 146.5 195.625 150C195.625 152.938 192 156.062 185.812 158.375Z" fill="#70D34C"/>
<path d="M319.169 171.525C316.319 172.25 314.556 171.556 312.975 169.181C309.425 163.862 305.506 158.787 301.725 153.619C301.237 152.95 300.731 152.294 300.1 151.462C295.625 157.5 291.156 163.25 286.962 169.231C285.462 171.369 283.887 172.3 281.087 171.544L297.912 148.962L282.25 128.569C284.944 128.044 286.806 128.312 288.456 130.725C292.1 136.05 296.119 141.119 300.125 146.481C304.156 141.137 308.125 136.062 311.875 130.787C313.381 128.65 315 127.837 317.706 128.625C315.656 131.344 313.65 134.019 311.631 136.675C308.906 140.256 306.231 143.881 303.406 147.387C302.4 148.637 302.562 149.45 303.462 150.631C308.688 157.5 313.85 164.437 319.169 171.525ZM240.831 148.587C241.281 146.331 241.581 144.031 242.206 141.819C245.956 128.425 261.331 122.856 271.894 131.156C278.081 136.025 279.619 142.887 279.312 150.625H244.438C243.913 164.506 253.906 172.887 266.644 168.612C271.113 167.112 273.744 163.612 275.062 159.237C275.731 157.044 276.838 156.7 278.9 157.325C277.844 162.8 275.45 167.375 270.45 170.237C262.95 174.525 252.244 173.137 246.612 167.181C243.287 163.681 241.875 159.325 241.25 154.619C241.156 153.869 240.962 153.131 240.812 152.387C240.825 151.121 240.831 149.854 240.831 148.587ZM244.5 147.656H276.019C275.812 137.619 269.563 130.487 261.019 130.425C251.644 130.35 244.906 137.312 244.5 147.656Z" fill="#70D34C"/>
<g clip-path="url(#clip2_198_163)">
<path d="M77.5806 259.388C77.5806 254.58 73.9381 250.535 69.0481 249.38L80 220.071H25.725L36.7019 249.473C31.9656 250.72 28.4744 254.695 28.4744 259.412C28.4744 262.878 30.3856 265.952 33.2887 267.847C32.1437 269.326 30.8181 270.691 29.3162 271.985C26.4894 274.39 23.3544 276.238 19.9681 277.463C16.9119 275.591 15.5881 272.285 16.7844 269.326C21.445 268.032 24.8344 264.08 24.8344 259.434C24.8344 253.726 19.7144 249.101 13.4469 249.101C7.15562 249.101 2.03875 253.748 2.03875 259.458C2.03875 262.278 3.31062 264.866 5.34937 266.714C5.17062 267.039 4.99312 267.361 4.81437 267.708C3.10812 270.899 1.17187 274.505 0.431873 278.55C-1.045 286.638 1.37437 293.135 7.20687 296.81C10.4931 298.868 14.1112 299.908 18.0081 299.908C24.7044 299.908 31.5062 296.856 38.0762 293.896C42.7637 291.795 47.6025 289.597 52.3656 288.535C54.1237 288.142 55.9569 287.91 57.8931 287.656C61.8137 287.148 65.8644 286.616 69.5069 284.698C73.76 282.456 76.6631 278.711 77.505 274.412C78.1394 271.106 77.505 267.778 75.8737 264.866C76.988 263.257 77.584 261.345 77.5806 259.388ZM72.615 259.388C72.615 262.6 69.7363 265.213 66.1963 265.213C62.6562 265.213 59.7775 262.6 59.7775 259.388C59.7775 258.347 60.0831 257.354 60.6175 256.499C60.8206 256.174 61.0769 255.852 61.33 255.574C61.5983 255.288 61.8974 255.032 62.2219 254.812L62.2487 254.788C62.4512 254.649 62.6806 254.51 62.91 254.373C62.91 254.373 62.935 254.373 62.935 254.348C63.0369 254.302 63.1394 254.233 63.2425 254.187C63.2669 254.187 63.2912 254.163 63.3175 254.163C63.4206 254.119 63.5475 254.073 63.6737 254.026C63.7943 253.984 63.9133 253.937 64.0306 253.887C64.0556 253.887 64.0819 253.862 64.1062 253.862C64.2087 253.841 64.3112 253.794 64.4119 253.772C64.4387 253.772 64.49 253.748 64.5144 253.748C64.6413 253.726 64.7437 253.701 64.8706 253.679H64.8975L65.2787 253.608C65.305 253.608 65.3538 253.608 65.3806 253.586C65.4831 253.586 65.5837 253.562 65.6862 253.562H65.8131C65.94 253.562 66.0694 253.54 66.2206 253.54H66.5525C66.6525 253.54 66.7312 253.54 66.8312 253.562H66.8825C67.0875 253.587 67.29 253.608 67.495 253.655C70.3981 254.209 72.615 256.568 72.615 259.388ZM32.8294 224.693H72.8931L63.6987 249.31C63.3175 249.38 62.9344 249.495 62.5537 249.61L52.8762 231.697L43.1712 249.494C42.7881 249.38 42.3806 249.309 41.975 249.24L32.8294 224.693ZM51.04 257.375C50.5569 255.202 49.3337 253.261 47.6025 251.828L52.8762 242.168L58.1981 252.036C56.6187 253.469 55.4731 255.295 55.0144 257.375H51.04ZM38.2812 253.725C38.4081 253.7 38.5106 253.679 38.6375 253.655H38.7131C38.8156 253.633 38.9187 253.633 39.0187 253.608H39.1213C39.2238 253.608 39.2994 253.586 39.4019 253.586H40.3956C40.4956 253.586 40.5737 253.608 40.6494 253.608C40.7006 253.608 40.725 253.608 40.7762 253.633C40.8787 253.655 40.9544 253.655 41.0575 253.679C41.0812 253.679 41.1081 253.679 41.1594 253.701C41.2869 253.725 41.4137 253.747 41.5156 253.771H41.5406C41.6431 253.793 41.7456 253.815 41.8456 253.862C41.8725 253.862 41.8969 253.886 41.9481 253.886C42.0237 253.908 42.1263 253.933 42.2019 253.979C42.2287 253.979 42.2531 254.001 42.28 254.001C42.38 254.048 42.4831 254.072 42.5856 254.118H42.61C42.7369 254.162 42.8394 254.208 42.9419 254.28H42.9669C43.0687 254.326 43.1712 254.394 43.2737 254.44C43.2987 254.44 43.2987 254.465 43.3225 254.465C43.425 254.509 43.5012 254.58 43.6037 254.626L43.6306 254.648C43.9356 254.856 44.2162 255.088 44.4944 255.32L44.5212 255.341C44.7756 255.595 45.0294 255.873 45.2344 256.174C45.8962 257.099 46.2794 258.186 46.2794 259.365C46.2794 262.578 43.4006 265.188 39.8606 265.188C36.3206 265.188 33.4419 262.578 33.4419 259.365C33.4156 256.66 35.4787 254.372 38.2812 253.725ZM13.2175 253.561C16.7581 253.561 19.6362 256.174 19.6362 259.386C19.6362 262.6 16.7581 265.211 13.2175 265.211C9.6775 265.211 6.79875 262.6 6.79875 259.386C6.79875 256.174 9.6775 253.561 13.2175 253.561ZM72.4613 273.603C71.9019 276.56 69.8875 279.15 66.9337 280.698C64.1575 282.155 60.7444 282.616 57.1531 283.078C55.1931 283.332 53.13 283.61 51.1425 284.05C45.845 285.229 40.7519 287.541 35.8106 289.758C29.4944 292.602 23.5325 295.283 18.0081 295.283C15.1294 295.283 12.5562 294.543 10.1125 292.995C4.50937 289.482 4.7875 282.895 5.45187 279.289C6.06187 275.913 7.76875 272.746 9.39937 269.719C9.49937 269.533 9.5775 269.372 9.6775 269.186C10.2394 269.372 10.825 269.511 11.4356 269.604C10.4687 274.504 13.2175 279.565 18.5669 282.063L19.5356 282.524L20.5787 282.177C25.0369 280.744 29.1625 278.41 32.805 275.29C34.8681 273.532 36.6262 271.638 38.1031 269.58C38.6887 269.673 39.275 269.697 39.8606 269.697C45.1587 269.697 49.6144 266.391 50.8887 261.953H55.1662C56.4406 266.413 60.8981 269.696 66.1963 269.696C68.3106 269.696 70.2712 269.165 71.9506 268.264C72.615 269.997 72.8175 271.799 72.4613 273.603Z" fill="#70D34C"/>
</g>
<g clip-path="url(#clip3_198_163)">
<path d="M197.961 256.486L163.513 222.04C161.531 220.056 158.313 220.056 156.328 222.04L149.175 229.194L158.249 238.268C160.358 237.556 162.776 238.033 164.456 239.714C166.146 241.405 166.619 243.843 165.89 245.959L174.635 254.705C176.751 253.976 179.193 254.447 180.881 256.139C183.244 258.5 183.244 262.327 180.881 264.689C180.32 265.251 179.653 265.696 178.92 266C178.186 266.304 177.399 266.461 176.605 266.461C175.811 266.461 175.025 266.304 174.291 266C173.557 265.696 172.891 265.251 172.329 264.689C171.486 263.845 170.911 262.77 170.677 261.6C170.443 260.43 170.56 259.217 171.014 258.113L162.859 249.958L162.858 271.421C163.449 271.713 163.989 272.099 164.457 272.564C166.818 274.924 166.818 278.75 164.457 281.116C162.095 283.476 158.267 283.476 155.908 281.116C153.546 278.751 153.546 274.925 155.908 272.564C156.473 271.997 157.146 271.549 157.887 271.245V249.583C157.146 249.28 156.472 248.832 155.908 248.264C154.119 246.476 153.688 243.851 154.606 241.654L145.66 232.708L122.04 256.327C121.087 257.28 120.552 258.573 120.552 259.921C120.552 261.269 121.087 262.561 122.04 263.514L156.488 297.961C158.472 299.944 161.688 299.944 163.675 297.961L197.961 263.674C198.914 262.721 199.449 261.428 199.449 260.08C199.449 258.732 198.914 257.44 197.961 256.486Z" fill="#70D34C"/>
</g>
<path fill-rule="evenodd" clip-rule="evenodd" d="M280 223.189C259.158 223.189 242.257 240.086 242.257 260.932C242.257 277.608 253.072 291.755 268.068 296.746C269.954 297.096 270.646 295.928 270.646 294.931C270.646 294.031 270.611 291.058 270.595 287.904C260.095 290.187 257.879 283.451 257.879 283.451C256.162 279.088 253.689 277.928 253.689 277.928C250.264 275.586 253.947 275.634 253.947 275.634C257.736 275.9 259.732 279.524 259.732 279.524C263.099 285.293 268.562 283.625 270.716 282.661C271.054 280.222 272.032 278.556 273.112 277.614C264.729 276.661 255.916 273.424 255.916 258.962C255.916 254.841 257.391 251.474 259.805 248.831C259.412 247.881 258.121 244.042 260.17 238.843C260.17 238.843 263.339 237.829 270.551 242.712C273.562 241.875 276.792 241.454 280 241.44C283.206 241.454 286.437 241.874 289.454 242.711C296.658 237.828 299.823 238.842 299.823 238.842C301.877 244.04 300.586 247.879 300.194 248.829C302.614 251.473 304.078 254.84 304.078 258.961C304.078 273.457 295.249 276.648 286.844 277.583C288.199 278.754 289.405 281.052 289.405 284.573C289.405 289.623 289.361 293.687 289.361 294.93C289.361 295.934 290.041 297.111 291.954 296.741C306.941 291.744 317.743 277.602 317.743 260.932C317.742 240.088 300.844 223.189 280 223.189Z" fill="#70D34C"/>
<path d="M256.552 277.379C256.469 277.566 256.174 277.622 255.906 277.494C255.631 277.372 255.477 277.116 255.566 276.928C255.647 276.734 255.943 276.681 256.216 276.811C256.491 276.934 256.647 277.192 256.552 277.379L256.552 277.379ZM258.081 279.084C257.902 279.251 257.55 279.174 257.311 278.909C257.064 278.647 257.017 278.295 257.201 278.126C257.387 277.959 257.728 278.038 257.976 278.301C258.222 278.567 258.271 278.916 258.082 279.085L258.081 279.084ZM259.57 281.257C259.339 281.419 258.96 281.268 258.726 280.932C258.495 280.596 258.495 280.193 258.732 280.032C258.966 279.871 259.339 280.017 259.576 280.349C259.806 280.69 259.806 281.094 259.57 281.257ZM261.608 283.358C261.402 283.586 260.961 283.525 260.638 283.214C260.309 282.91 260.217 282.477 260.424 282.249C260.634 282.021 261.077 282.084 261.401 282.393C261.731 282.697 261.83 283.131 261.609 283.357L261.608 283.358ZM264.421 284.577C264.329 284.873 263.905 285.007 263.477 284.881C263.05 284.752 262.771 284.406 262.858 284.107C262.946 283.809 263.372 283.67 263.803 283.804C264.23 283.933 264.509 284.277 264.421 284.577ZM267.51 284.803C267.521 285.114 267.158 285.372 266.71 285.378C266.258 285.389 265.892 285.136 265.888 284.83C265.888 284.516 266.243 284.261 266.694 284.252C267.142 284.244 267.511 284.494 267.511 284.802L267.51 284.803ZM270.384 284.314C270.437 284.617 270.126 284.929 269.68 285.012C269.242 285.094 268.836 284.905 268.78 284.604C268.726 284.293 269.044 283.981 269.481 283.901C269.927 283.824 270.327 284.006 270.384 284.314Z" fill="#70D34C"/>
<path d="M438 252.562C435.312 251 431.75 250.813 428.75 251.688C428.375 248.438 426.25 245.625 423.75 243.625L422.75 242.812L421.875 243.812C420.187 245.75 419.687 249 419.937 251.5C420.125 253.313 420.687 255.188 421.812 256.688C420.937 257.188 420 257.875 419.125 258.188C417.375 258.812 415.437 259.438 413.562 259.438H409.375V250.625H401.25V235H391.875V242.5H376.25V250.625H368.125V259.375H361.125L361 260.312C360.687 264.312 361.187 268.188 362.875 271.875L363.562 273.25L363.625 273.375C368.562 281.75 377.187 285.25 386.625 285.25C404.875 285.25 419.937 277.062 426.812 259.875C431.437 260.125 436.187 258.75 438.437 254.312L439 253.188L438 252.562ZM377.5 244.375H383.75V251.25H377.5V244.375ZM385.687 272C385.687 273.062 384.812 273.938 383.75 273.938C382.687 273.938 381.812 273.062 381.812 272C381.812 270.937 382.687 270.062 383.75 270.062C384.812 270.125 385.687 270.937 385.687 272ZM377.5 252.5H383.75V259.375H377.5V252.5ZM369.375 252.5H376.25V259.375H369.375V252.5ZM386.687 283.875C376.812 283.812 371.5 280.5 367.125 276.125C368.437 276.188 369.687 276.25 370.812 276.25C371.812 276.25 372.812 276.25 373.75 276.188C376.187 276.062 378.312 275.75 380.062 275.25C381.5 278.562 384.125 281.625 388.812 283.875H386.687ZM391.875 259.375H385V252.5H391.875V259.375ZM391.875 251.25H385V244.375H391.875V251.25ZM400 259.375H393.125V252.5H400V259.375ZM400 251.25H393.125V244.375H400V251.25ZM400 243.125H393.125V236.25H400V243.125ZM408.125 259.375H401.25V252.5H408.125V259.375ZM384.25 270.75C384.125 270.687 383.937 270.625 383.75 270.625C383 270.625 382.375 271.25 382.375 272C382.375 272.75 383 273.375 383.75 273.375C384.5 273.375 385.125 272.75 385.125 272C385.125 271.812 385.062 271.625 385 271.5C384.875 271.688 384.75 271.812 384.5 271.812C384.187 271.812 383.937 271.562 383.937 271.25C384 271 384.125 270.812 384.25 270.75Z" fill="#70D34C"/>
<path d="M400 111.438C378.688 111.438 361.438 128.688 361.438 150C361.438 171.313 378.688 188.562 400 188.562C421.313 188.562 438.562 171.313 438.562 150C438.562 128.688 421.313 111.438 400 111.438ZM420.813 133.75C419 133.813 417.813 132.75 417.75 131.125C417.75 130.5 417.875 130 418.313 129.375C418.688 128.625 418.813 128.5 418.813 128.188C418.75 127.188 417.25 127.125 416.813 127.125C411 127.313 409.5 135.125 408.25 141.5L407.625 144.875C410.938 145.375 413.313 144.75 414.625 143.938C416.5 142.75 414.125 141.5 414.375 140.125C414.688 138.75 415.938 138.063 416.938 138C418.375 137.938 419.375 139.438 419.313 140.938C419.25 143.375 416 146.813 409.438 146.625C408.625 146.625 407.938 146.563 407.25 146.5L406 153.313C404.875 158.438 403.438 165.5 398.188 171.625C393.688 177 389.125 177.812 387.063 177.875C383.25 178 380.688 175.938 380.625 173.25C380.563 170.625 382.875 169.188 384.375 169.125C386.438 169.063 387.813 170.563 387.875 172.25C387.938 173.688 387.188 174.125 386.688 174.438C386.375 174.688 385.875 175 385.875 175.563C385.875 175.813 386.188 176.375 387 176.375C388.625 176.312 389.688 175.5 390.438 175C394.188 171.875 395.625 166.438 397.5 156.625L397.875 154.25C398.5 151.063 399.25 147.438 400.313 143.875C397.688 141.875 396.125 139.438 392.563 138.5C390.125 137.813 388.688 138.375 387.625 139.688C386.375 141.25 386.813 143.25 388 144.438L389.938 146.625C392.375 149.438 393.688 151.562 393.188 154.5C392.5 159.062 386.938 162.625 380.375 160.625C374.75 158.875 373.75 154.938 374.438 152.75C375 150.813 376.563 150.438 378.063 150.938C379.688 151.438 380.313 153.375 379.813 154.875C379.75 155.063 379.688 155.313 379.5 155.625C379.313 156.063 379 156.375 378.813 156.875C378.438 158.063 380.063 158.875 381.188 159.25C383.688 160 386.125 158.688 386.75 156.688C387.313 154.812 386.125 153.5 385.688 153L383.313 150.438C382.25 149.25 379.813 145.875 381 142.063C381.438 140.625 382.375 139.063 383.75 138.063C386.625 135.875 389.813 135.563 392.813 136.438C396.688 137.563 398.563 140.125 401 142.125C402.375 138.188 404.25 134.25 407.063 131C409.625 128 413 125.875 416.938 125.688C420.875 125.563 423.813 127.313 423.938 130.125C423.875 131.375 423.188 133.688 420.813 133.75Z" fill="#70D34C"/>
<defs>
<clipPath id="clip0_198_163">
<rect width="80" height="80" fill="white" transform="translate(0 110)"/>
</clipPath>
<clipPath id="clip1_198_163">
<rect width="80" height="80" fill="white" transform="translate(120)"/>
</clipPath>
<clipPath id="clip2_198_163">
<rect width="80" height="80" fill="white" transform="translate(0 220)"/>
</clipPath>
<clipPath id="clip3_198_163">
<rect width="80" height="80" fill="white" transform="translate(120 220)"/>
</clipPath>
</defs>
</svg>
