<svg width="847" height="1080" viewBox="0 0 847 1080" fill="none" xmlns="http://www.w3.org/2000/svg">
<path d="M543.572 1722.12C1176.03 919.2 399.447 85.8242 543.572 -336.903" stroke="#FFDF5D" stroke-width="102"/>
<line y1="-51" x2="2059.02" y2="-51" transform="matrix(-4.37114e-08 -1 0.999986 0.00532905 503.325 1709.02)" stroke="#FFCC00" stroke-width="102"/>
<line y1="-51" x2="2059.02" y2="-51" transform="matrix(-4.37114e-08 -1 0.999986 0.00532905 401.325 1723)" stroke="#FF7700" stroke-width="102"/>
<line y1="-51" x2="2059.02" y2="-51" transform="matrix(-4.37114e-08 -1 0.999986 0.00532905 299.325 1738)" stroke="#E60000" stroke-width="102"/>
<line y1="-51" x2="2059.02" y2="-51" transform="matrix(-4.37114e-08 -1 0.999986 0.00532905 197.325 1716)" stroke="#B10000" stroke-width="102"/>
<line y1="-51" x2="2059.02" y2="-51" transform="matrix(-4.37114e-08 -1 0.999986 0.00532905 95.3248 1745)" stroke="#880036" stroke-width="102"/>
</svg>
